<?xml version="1.0" standalone="no"?>
<!DOCTYPE svg PUBLIC "-//W3C//DTD SVG 20010904//EN"
 "http://www.w3.org/TR/2001/REC-SVG-20010904/DTD/svg10.dtd">
<svg version="1.0" xmlns="http://www.w3.org/2000/svg"
 width="640.000000pt" height="640.000000pt" viewBox="0 0 640.000000 640.000000"
 preserveAspectRatio="xMidYMid meet">
<metadata>
Created by potrace 1.11, written by Peter Selinger 2001-2013
</metadata>
<g transform="translate(0.000000,640.000000) scale(0.100000,-0.100000)"
fill="#000000" stroke="none">
<path d="M1 4933 c1 -1207 3 -1459 13 -1416 36 147 151 295 289 372 60 34 174
61 254 61 163 0 288 -53 403 -169 114 -115 164 -237 164 -396 0 -108 -20 -184
-74 -275 -156 -265 -484 -359 -755 -217 -129 68 -244 217 -279 363 -13 52 -14
-141 -15 -1598 l-1 -1658 3200 0 3200 0 0 3200 0 3200 -3200 0 -3200 0 1
-1467z m6252 886 c160 -44 183 -276 34 -348 l-44 -21 -2305 2 -2304 3 -38 25
c-53 36 -91 116 -82 175 11 84 59 141 136 163 50 14 4552 16 4603 1z m-1478
-1503 c248 -7 433 -51 655 -157 341 -163 646 -466 804 -799 73 -155 117 -300
150 -497 l6 -33 -540 0 c-356 0 -548 4 -567 11 -15 5 -41 22 -57 37 -19 18
-149 271 -377 730 -192 387 -349 707 -349 711 0 4 24 6 53 5 28 -2 129 -6 222
-8z"/>
</g>
</svg>
